<svg width="19" height="16" viewBox="0 0 19 16" fill="none" xmlns="http://www.w3.org/2000/svg">
<path d="M17.1756 3.96164C19.3624 7.46121 18.2981 12.0709 14.7986 14.2577C12.0336 15.9854 8.57562 15.6838 6.16721 13.755L6.52514 13.5314C8.79994 15.2802 12.0116 15.5311 14.5879 13.9214C17.9014 11.8509 18.909 7.48631 16.8385 4.17283C15.4181 1.8997 13.1555 0.689738 10.6559 0.836386C9.97237 0.876359 9.39327 1.07437 9.39327 1.07437C9.39327 1.07437 9.36306 0.866304 9.3195 0.739121C12.3807 -0.0879592 15.2722 0.91552 17.1756 3.96164H17.1756ZM3.54107 9.53335L3.89984 9.30918C3.56801 7.64804 3.80278 6.04529 4.62095 4.58271C4.62095 4.58271 4.41944 4.36319 4.30127 4.30087C3.42787 5.88157 3.14647 7.74696 3.5411 9.53337L3.54107 9.53335ZM12.9077 10.0114C12.866 9.95178 12.8406 9.83848 12.8317 9.67153C12.8257 9.45102 12.8228 9.26325 12.8228 9.1082V6.87277C12.8228 6.28563 12.6148 5.88621 12.1987 5.67455C11.7826 5.46297 11.3066 5.35714 10.7708 5.35714C9.94755 5.35714 9.36684 5.57169 9.02861 6.00095C8.81603 6.27524 8.69632 6.62539 8.66938 7.05161H9.89887C9.92908 6.86384 9.98944 6.71481 10.0802 6.60457C10.207 6.45556 10.423 6.38102 10.7282 6.38102C11.0001 6.38102 11.2063 6.41901 11.3468 6.49502C11.4873 6.57102 11.5575 6.70889 11.5575 6.90857C11.5575 7.07253 11.4659 7.19325 11.2829 7.27069C11.1807 7.3154 11.0111 7.3527 10.7739 7.38248L10.337 7.43611C9.84163 7.49868 9.46632 7.60306 9.21101 7.74911C8.74558 8.01739 8.51295 8.45099 8.51295 9.05009C8.51295 9.51209 8.65753 9.86902 8.94686 10.1209C9.2362 10.3727 9.60258 10.4987 10.0463 10.4987C10.3941 10.4987 10.7059 10.4197 10.9818 10.2617C11.2126 10.1276 11.4165 9.96518 11.5934 9.77442C11.6023 9.88475 11.6142 9.9831 11.6292 10.0696C11.6441 10.156 11.6709 10.2484 11.7097 10.3467H13.0957V10.159C13.012 10.1202 12.9494 10.0711 12.9077 10.0114L12.9077 10.0114ZM11.5529 8.45105C11.5439 8.87733 11.4222 9.17085 11.1875 9.33185C10.9529 9.49286 10.6965 9.57326 10.4181 9.57326C10.2425 9.57326 10.0934 9.52488 9.97085 9.42799C9.84824 9.33117 9.78696 9.17392 9.78696 8.95632C9.78696 8.71192 9.88729 8.53156 10.088 8.41535C10.2065 8.34684 10.4018 8.28869 10.6736 8.241L10.9636 8.18736C11.1087 8.16051 11.2227 8.13151 11.3058 8.10015C11.3889 8.06888 11.4713 8.0279 11.5528 7.97722V8.45105H11.5529ZM7.93785 1.83265C7.93785 0.82053 7.11741 0 6.10521 0C5.09301 0 4.27264 0.82053 4.27264 1.83265C4.27264 2.84476 5.09317 3.6653 6.10529 3.6653C7.11741 3.6653 7.93785 2.84476 7.93785 1.83265ZM11.6188 2.50837C10.8084 2.38004 10.0114 2.43635 9.27058 2.64617C9.06816 3.42747 8.57777 4.13561 7.83927 4.597C7.28686 4.94219 6.67121 5.1021 6.065 5.09357C5.71097 5.681 5.46208 6.34511 5.34816 7.06425C5.16398 8.22698 5.36007 9.36202 5.84419 10.343L4.92241 10.919C4.62193 10.7596 4.2464 10.7635 3.9409 10.9619L0.440945 13.2348C-0.00746907 13.526 -0.13488 14.1255 0.156265 14.5738C0.447495 15.0223 1.04683 15.1496 1.49518 14.8584L4.9952 12.5855C5.30406 12.385 5.46055 12.0381 5.43293 11.6951L6.32396 11.1384C7.14831 12.2755 8.40709 13.0978 9.90394 13.3349C12.8936 13.8084 15.701 11.7687 16.1746 8.77904C16.6481 5.78938 14.6084 2.982 11.6188 2.50841L11.6188 2.50837ZM14.6389 8.61234C14.2998 10.7532 12.2895 12.2137 10.1488 11.8746C8.00802 11.5356 6.54742 9.52519 6.88649 7.38446C7.22556 5.24372 9.23592 3.78311 11.3767 4.12218C13.5174 4.46125 14.9779 6.47161 14.6389 8.61234H14.6389Z" fill="black"/>
</svg>
