<svg width="18" height="14" viewBox="0 0 18 14" fill="none" xmlns="http://www.w3.org/2000/svg">
<path d="M15.71 7.686C15.7451 7.462 15.7715 7.238 15.7715 7C15.7715 6.762 15.7451 6.538 15.71 6.314L17.5618 5.159C17.7285 5.054 17.7724 4.865 17.6671 4.711L15.9119 2.289C15.8329 2.177 15.6837 2.114 15.5257 2.114C15.4731 2.114 15.4204 2.121 15.3765 2.135L13.1913 2.835C12.7349 2.555 12.2435 2.324 11.7081 2.149L11.3746 0.294C11.3483 0.126 11.164 0 10.9446 0H7.43419C7.21479 0 7.03049 0.126 7.00416 0.294L6.67067 2.149C6.13533 2.324 5.64387 2.562 5.18752 2.835L3.00228 2.135C2.94962 2.121 2.89696 2.114 2.84431 2.114C2.69512 2.114 2.54592 2.177 2.46694 2.289L0.711725 4.711C0.597636 4.865 0.650292 5.054 0.817038 5.159L2.66879 6.314C2.63368 6.538 2.60735 6.769 2.60735 7C2.60735 7.231 2.63368 7.462 2.66879 7.686L0.817038 8.841C0.650292 8.946 0.606412 9.135 0.711725 9.289L2.46694 11.711C2.54592 11.823 2.69512 11.886 2.85308 11.886C2.90574 11.886 2.9584 11.879 3.00228 11.865L5.18752 11.165C5.64387 11.445 6.13533 11.676 6.67067 11.851L7.00416 13.706C7.03049 13.874 7.21479 14 7.43419 14H10.9446C11.164 14 11.3483 13.874 11.3746 13.706L11.7081 11.851C12.2435 11.676 12.7349 11.438 13.1913 11.165L15.3765 11.865C15.4292 11.879 15.4818 11.886 15.5345 11.886C15.6837 11.886 15.8329 11.823 15.9119 11.711L17.6671 9.289C17.7724 9.135 17.7285 8.946 17.5618 8.841L15.71 7.686ZM13.9724 6.489C14.0075 6.706 14.0162 6.853 14.0162 7C14.0162 7.147 13.9987 7.301 13.9724 7.511L13.8495 8.302L14.6306 8.792L15.5784 9.38L14.9641 10.227L13.8495 9.87L12.9368 9.576L12.1469 10.052C11.7696 10.276 11.4097 10.444 11.0499 10.563L10.1197 10.864L9.97925 11.655L9.80373 12.6H8.57508L8.40833 11.655L8.26792 10.864L7.33765 10.563C6.96028 10.437 6.60924 10.276 6.2582 10.066L5.45958 9.576L4.52931 9.877L3.41475 10.234L2.80043 9.387L3.74824 8.799L4.52931 8.309L4.40645 7.518C4.38012 7.301 4.36257 7.14 4.36257 7C4.36257 6.86 4.38012 6.699 4.40645 6.489L4.52931 5.698L3.74824 5.208L2.80043 4.62L3.41475 3.773L4.52931 4.13L5.44202 4.424L6.23187 3.948C6.60924 3.724 6.96906 3.556 7.32888 3.437L8.25914 3.136L8.39956 2.345L8.57508 1.4H9.79495L9.9617 2.345L10.1021 3.136L11.0324 3.437C11.4097 3.563 11.7608 3.724 12.1118 3.934L12.9105 4.424L13.8407 4.123L14.9553 3.766L15.5696 4.613L14.6306 5.208L13.8495 5.698L13.9724 6.489ZM9.1894 4.2C7.24989 4.2 5.67898 5.453 5.67898 7C5.67898 8.547 7.24989 9.8 9.1894 9.8C11.1289 9.8 12.6998 8.547 12.6998 7C12.6998 5.453 11.1289 4.2 9.1894 4.2ZM9.1894 8.4C8.22404 8.4 7.43419 7.77 7.43419 7C7.43419 6.23 8.22404 5.6 9.1894 5.6C10.1548 5.6 10.9446 6.23 10.9446 7C10.9446 7.77 10.1548 8.4 9.1894 8.4Z" fill="#1E1E1E"/>
</svg>
