<svg width="20" height="18" viewBox="0 0 20 18" fill="none" xmlns="http://www.w3.org/2000/svg">
<path d="M5.14766 3.5377C4.97415 3.5377 4.79726 3.54807 4.63346 3.58912C4.53753 3.61347 4.44292 3.65453 4.35061 3.69196C4.3149 3.70652 4.28282 3.72684 4.24777 3.74338C4.23321 3.75013 4.23658 3.76197 4.2221 3.76905C4.13505 3.81216 4.04702 3.84342 3.965 3.89764C3.95348 3.90513 3.92501 3.91566 3.91358 3.92339C3.88947 3.93985 3.88577 3.95729 3.86216 3.97473C3.79502 4.02294 3.7195 4.07428 3.65648 4.12907C3.59897 4.18074 3.55602 4.25166 3.50222 4.309C3.32023 4.49568 3.14219 4.69453 3.01368 4.92604C2.79303 5.31297 2.64609 5.73683 2.57665 6.18588C2.54317 6.1788 2.50319 6.17617 2.47381 6.18588C2.24896 6.25893 2.19886 6.68708 2.3453 7.13711C2.4312 7.4012 2.55946 7.611 2.70516 7.72864C2.90097 8.48966 3.32196 9.13056 3.86216 9.52794V9.9648L3.42505 10.3762L2.57665 10.8139C1.88425 11.1569 1.18576 11.4992 0.49418 11.8423C0.110874 12.0734 -0.0308895 12.5218 0.00564758 12.948C0.0234858 13.2154 -0.0806807 13.5659 0.185618 13.7444C0.438605 13.8744 0.759376 13.8003 1.03401 13.8217H2.52519C2.67468 13.6259 2.86152 13.4449 3.09081 13.3075L3.11648 13.282H3.14223C4.3031 12.7119 5.44923 12.1302 6.61305 11.5592L7.94998 10.9167C7.8742 10.8788 7.79432 10.8509 7.71863 10.8139L6.87024 10.3762L6.43312 9.9648V9.52794C6.77496 9.27701 7.0639 8.91336 7.2816 8.49954C6.9883 8.02565 6.76254 7.48101 6.61305 6.90592C6.36467 6.65088 6.13184 6.3677 5.99601 5.95445C5.85623 5.52902 5.81633 5.08944 5.8675 4.72036C5.91283 4.39341 6.06989 4.0839 6.3817 3.92339C6.28989 3.86374 6.17043 3.81726 6.07318 3.76905C6.02415 3.74502 5.99502 3.71236 5.94467 3.69196C5.90888 3.6774 5.8782 3.67888 5.84183 3.66621C5.73249 3.62836 5.62126 3.58278 5.50756 3.56337C5.49884 3.56205 5.49061 3.56485 5.48181 3.56337C5.3751 3.54658 5.25696 3.53646 5.14762 3.5377H5.14766Z" fill="black"/>
<path d="M11.1116 0C10.8204 0 10.5332 -2.00872e-05 10.2576 0.0822521C10.0972 0.0822521 9.94087 0.164585 9.7862 0.246857C9.72614 0.246857 9.66526 0.246837 9.60603 0.329109H9.53856C9.39294 0.411381 9.24979 0.493694 9.11157 0.575966H9.04411C9.00379 0.658238 8.97171 0.658198 8.93222 0.74047C8.8195 0.822742 8.70103 0.822782 8.5949 0.987327C8.49864 1.0696 8.41555 1.15181 8.32505 1.23408C8.01974 1.56317 7.75474 1.8923 7.53894 2.30366C7.1683 2.87957 6.89162 3.62002 6.77488 4.36047H6.61757C6.23994 4.52501 6.14697 5.18321 6.39289 5.92366C6.53719 6.41729 6.77734 6.74634 7.0221 6.91089C7.35086 8.22724 8.0473 9.29674 8.95443 9.95492V10.6954L8.23537 11.3536L6.79734 12.0941C5.63442 12.67 4.47594 13.2459 3.31434 13.8218C2.67056 14.1509 2.42152 14.9735 2.4829 15.6317C2.51285 16.1254 2.35019 16.7012 2.79743 16.9481C3.22236 17.1949 3.72932 17.0304 4.19071 17.0304H8.23537H13.9878C15.6901 17.0304 17.3873 17.1127 19.0895 17.0304C19.6416 17.0304 19.7946 16.4545 19.7411 15.9608C19.751 15.3027 19.7905 14.5622 19.2689 14.0685C18.8436 13.6572 18.238 13.4926 17.7189 13.1636C16.9562 12.8345 16.1886 12.4232 15.4268 12.0941L13.9878 11.3536L13.2688 10.6954V9.95492C14.1762 9.29674 14.8731 8.22724 15.2014 6.91089C15.4465 6.74634 15.6868 6.41729 15.8307 5.92366C16.0767 5.18321 15.9838 4.52501 15.6061 4.36047H15.449C15.3322 3.62002 15.0557 2.87957 14.6847 2.30366C14.4691 1.8923 14.2042 1.56317 13.8982 1.23408C13.8077 1.15181 13.7254 1.0696 13.6283 0.987327H13.6061C13.3247 0.74051 13.0113 0.493653 12.6847 0.329109C12.6024 0.329109 12.5226 0.246857 12.4378 0.246857C12.3778 0.246857 12.3194 0.164605 12.2577 0.164605C12.0742 0.0823325 11.8874 0.0822722 11.6957 0H11.6513H11.1116Z" fill="#1E1E1E"/>
</svg>
