<svg width="18" height="14" viewBox="0 0 18 14" fill="none" xmlns="http://www.w3.org/2000/svg">
<path d="M10.3731 10.6867C10.3731 11.2233 9.87039 11.6667 9.18746 11.6667C8.52351 11.6667 7.99234 11.2311 7.99234 10.6867C7.99234 10.1344 8.52351 9.71444 9.18746 9.71444C9.86091 9.71444 10.3731 10.1422 10.3731 10.6867ZM9.17798 2.33333C7.49912 2.33333 6.35142 3.22778 5.92459 4.27L7.48015 4.80667C7.68882 4.28556 8.18204 3.65556 9.18746 3.65556C10.724 3.65556 11.0276 4.83778 10.4869 5.46778C9.97473 6.06667 9.09261 6.47111 8.62784 7.14778C8.25793 7.68444 8.33381 8.30667 8.33381 8.68778H10.0601C10.0601 7.96444 10.1265 7.81667 10.2688 7.59111C10.6387 7.03111 11.3216 6.76667 12.0425 5.90333C12.6875 5.12556 12.4409 4.06778 12.0235 3.50778C11.5398 2.85444 10.5818 2.33333 9.17798 2.33333ZM15.827 1.55556H2.5479V12.4444H15.827V1.55556ZM15.827 0C16.8704 0 17.7241 0.7 17.7241 1.55556V12.4444C17.7241 13.3 16.8704 14 15.827 14H2.5479C1.50454 14 0.650879 13.3 0.650879 12.4444V1.55556C0.650879 0.7 1.50454 0 2.5479 0H15.827Z" fill="#1E1E1E"/>
</svg>
