<svg width="18" height="16" viewBox="0 0 18 16" fill="none" xmlns="http://www.w3.org/2000/svg">
<path d="M16.8463 2.32368C17.1518 2.3247 17.4445 2.4498 17.6606 2.67172C17.8767 2.89364 17.9987 3.19438 18 3.50838V8.14674C17.9932 8.47017 17.8736 8.78032 17.663 9.02069C17.4524 9.26107 17.1648 9.41568 16.8526 9.45635L6.19142 10.5934C6.13214 10.6095 6.0711 10.6177 6.00979 10.6179C5.8181 10.6179 5.63426 10.6961 5.49871 10.8355C5.36317 10.9748 5.28702 11.1638 5.28702 11.3609C5.28702 11.5579 5.36317 11.7469 5.49871 11.8863C5.63426 12.0256 5.8181 12.1039 6.00979 12.1039H16.6421C16.8292 12.1039 17.0086 12.1803 17.1408 12.3162C17.2731 12.4522 17.3474 12.6366 17.3474 12.8289C17.3474 13.0212 17.2731 13.2056 17.1408 13.3415C17.0086 13.4775 16.8292 13.5539 16.6421 13.5539H15.5022C15.7381 13.7078 15.919 13.9363 16.0178 14.2049C16.1165 14.4736 16.1277 14.768 16.0498 15.0438C15.9718 15.3196 15.8089 15.5619 15.5854 15.7343C15.362 15.9068 15.0902 16 14.8108 16C14.5314 16 14.2596 15.9068 14.0362 15.7343C13.8127 15.5619 13.6498 15.3196 13.5718 15.0438C13.4939 14.768 13.5051 14.4736 13.6038 14.2049C13.7026 13.9363 13.8835 13.7078 14.1193 13.5539H7.57308C7.80895 13.7078 7.98985 13.9363 8.08858 14.2049C8.18732 14.4736 8.19855 14.768 8.12059 15.0438C8.04262 15.3196 7.87969 15.5619 7.65626 15.7343C7.43284 15.9068 7.16101 16 6.88162 16C6.60224 16 6.3304 15.9068 6.10698 15.7343C5.88356 15.5619 5.72062 15.3196 5.64266 15.0438C5.5647 14.768 5.57593 14.4736 5.67466 14.2049C5.77339 13.9363 5.95429 13.7078 6.19017 13.5539H6.00854C5.7284 13.5539 5.451 13.4971 5.19218 13.3869C4.93337 13.2767 4.6982 13.1152 4.50011 12.9116C4.30202 12.7079 4.14489 12.4662 4.03768 12.2001C3.93048 11.934 3.8753 11.6489 3.8753 11.3609C3.8753 11.0729 3.93048 10.7877 4.03768 10.5217C4.14489 10.2556 4.30202 10.0138 4.50011 9.81021C4.6982 9.60657 4.93337 9.44503 5.19218 9.33483C5.451 9.22462 5.7284 9.1679 6.00854 9.1679C6.06247 9.16782 6.11624 9.17387 6.16887 9.18593L2.89073 1.44933H0.734948C0.639919 1.45345 0.54506 1.43776 0.45608 1.40322C0.367099 1.36867 0.285835 1.31598 0.217177 1.24831C0.148519 1.18065 0.093885 1.0994 0.0565625 1.00947C0.01924 0.91953 0 0.822762 0 0.724984C0 0.627206 0.01924 0.530438 0.0565625 0.440503C0.093885 0.350567 0.148519 0.269322 0.217177 0.201654C0.285835 0.133987 0.367099 0.0812963 0.45608 0.0467521C0.54506 0.0122079 0.639919 -0.00347605 0.734948 0.000643892H3.35295C3.48989 0.000642433 3.62385 0.0416949 3.73843 0.118773C3.85301 0.195852 3.94324 0.30561 3.99806 0.434604L4.79975 2.3224H16.8463V2.32368Z" fill="black"/>
</svg>
