<svg width="16" height="15" viewBox="0 0 16 15" fill="none" xmlns="http://www.w3.org/2000/svg">
<path d="M14.0272 0H2.21333C1.2851 0 0.525635 0.715217 0.525635 1.58937V12.715C0.525635 13.5891 1.2851 14.3043 2.21333 14.3043H14.0272C14.9554 14.3043 15.7149 13.5891 15.7149 12.715V1.58937C15.7149 0.715217 14.9554 0 14.0272 0ZM4.74487 12.715C3.34674 12.715 2.21333 11.5816 2.21333 10.1834V4.12091C2.21333 2.72278 3.34674 1.58937 4.74487 1.58937C6.143 1.58937 7.27641 2.72278 7.27641 4.12091V10.1834C7.27641 11.5816 6.143 12.715 4.74487 12.715ZM14.0272 10.1834C14.0272 11.5816 12.8938 12.715 11.4956 12.715C10.0975 12.715 8.9641 11.5816 8.9641 10.1834V9.68371C8.9641 8.28558 10.0975 7.15217 11.4956 7.15217C12.8938 7.15217 14.0272 8.28558 14.0272 9.68371V10.1834ZM14.0272 3.57609C14.0272 4.67332 13.1377 5.5628 12.0405 5.5628H10.9508C9.85358 5.5628 8.9641 4.67332 8.9641 3.57609C8.9641 2.47886 9.85358 1.58937 10.9508 1.58937H12.0405C13.1377 1.58937 14.0272 2.47886 14.0272 3.57609Z" fill="#1E1E1E"/>
</svg>
