<svg width="17" height="18" viewBox="0 0 17 18" fill="none" xmlns="http://www.w3.org/2000/svg">
<mask id="path-1-inside-1_3_2816" fill="white">
<path d="M16.6039 4.05012L11.8495 0H4.21847V2.77583H0.959961V17.2177H13.3493V14.4419H16.6079V4.05042L16.6039 4.05012ZM12.0405 0.948849L15.4899 3.88737H12.0405V0.948849ZM1.60848 16.6616V3.33151H8.12965V7.21894H12.693V16.6616H1.60848ZM8.78187 3.72474L12.2314 6.66326H8.78187V3.72474ZM13.3453 13.886V6.82601L8.5909 2.77589H4.8707V0.555891H11.3919V4.44332H15.9553V13.8859L13.3453 13.886Z"/>
</mask>
<path d="M16.6039 4.05012L11.8495 0H4.21847V2.77583H0.959961V17.2177H13.3493V14.4419H16.6079V4.05042L16.6039 4.05012ZM12.0405 0.948849L15.4899 3.88737H12.0405V0.948849ZM1.60848 16.6616V3.33151H8.12965V7.21894H12.693V16.6616H1.60848ZM8.78187 3.72474L12.2314 6.66326H8.78187V3.72474ZM13.3453 13.886V6.82601L8.5909 2.77589H4.8707V0.555891H11.3919V4.44332H15.9553V13.8859L13.3453 13.886Z" fill="#1E1E1E"/>
<path d="M16.6039 4.05012L15.9554 4.81135L16.2027 5.02205L16.5267 5.04713L16.6039 4.05012ZM11.8495 0L12.498 -0.761236L12.2177 -1H11.8495V0ZM4.21847 0V-1H3.21847V0H4.21847ZM4.21847 2.77583V3.77583H5.21847V2.77583H4.21847ZM0.959961 2.77583V1.77583H-0.0400391V2.77583H0.959961ZM0.959961 17.2177H-0.0400391V18.2177H0.959961V17.2177ZM13.3493 17.2177V18.2177H14.3493V17.2177H13.3493ZM13.3493 14.4419V13.4419H12.3493V14.4419H13.3493ZM16.6079 14.4419V15.4419H17.6079V14.4419H16.6079ZM16.6079 4.05042H17.6079V3.12484L16.685 3.05341L16.6079 4.05042ZM12.0405 0.948849L12.6889 0.187613L11.0405 -1.21667V0.948849H12.0405ZM15.4899 3.88737V4.88737H18.2059L16.1384 3.12613L15.4899 3.88737ZM12.0405 3.88737H11.0405V4.88737H12.0405V3.88737ZM1.60848 16.6616H0.608477V17.6616H1.60848V16.6616ZM1.60848 3.33151V2.33151H0.608477V3.33151H1.60848ZM8.12965 3.33151H9.12965V2.33151H8.12965V3.33151ZM8.12965 7.21894H7.12965V8.21894H8.12965V7.21894ZM12.693 7.21894H13.693V6.21894H12.693V7.21894ZM12.693 16.6616V17.6616H13.693V16.6616H12.693ZM8.78187 3.72474L9.43035 2.96351L7.78187 1.55922V3.72474H8.78187ZM12.2314 6.66326V7.66326H14.9473L12.8798 5.90202L12.2314 6.66326ZM8.78187 6.66326H7.78187V7.66326H8.78187V6.66326ZM13.3453 13.886H12.3453V14.886L13.3453 14.886L13.3453 13.886ZM13.3453 6.82601H14.3453V6.36423L13.9937 6.06477L13.3453 6.82601ZM8.5909 2.77589L9.23937 2.01466L8.95909 1.77589H8.5909V2.77589ZM4.8707 2.77589H3.8707V3.77589H4.8707V2.77589ZM4.8707 0.555891V-0.444109H3.8707V0.555891H4.8707ZM11.3919 0.555891H12.3919V-0.444109H11.3919V0.555891ZM11.3919 4.44332H10.3919V5.44332H11.3919V4.44332ZM15.9553 4.44332H16.9553V3.44332H15.9553V4.44332ZM15.9553 13.8859L15.9553 14.8859L16.9553 14.8859V13.8859H15.9553ZM17.2523 3.28888L12.498 -0.761236L11.201 0.761236L15.9554 4.81135L17.2523 3.28888ZM11.8495 -1H4.21847V1H11.8495V-1ZM3.21847 0V2.77583H5.21847V0H3.21847ZM4.21847 1.77583H0.959961V3.77583H4.21847V1.77583ZM-0.0400391 2.77583V17.2177H1.95996V2.77583H-0.0400391ZM0.959961 18.2177H13.3493V16.2177H0.959961V18.2177ZM14.3493 17.2177V14.4419H12.3493V17.2177H14.3493ZM13.3493 15.4419H16.6079V13.4419H13.3493V15.4419ZM17.6079 14.4419V4.05042H15.6079V14.4419H17.6079ZM16.685 3.05341L16.681 3.0531L16.5267 5.04713L16.5307 5.04744L16.685 3.05341ZM11.392 1.71008L14.8415 4.6486L16.1384 3.12613L12.6889 0.187613L11.392 1.71008ZM15.4899 2.88737H12.0405V4.88737H15.4899V2.88737ZM13.0405 3.88737V0.948849H11.0405V3.88737H13.0405ZM2.60848 16.6616V3.33151H0.608477V16.6616H2.60848ZM1.60848 4.33151H8.12965V2.33151H1.60848V4.33151ZM7.12965 3.33151V7.21894H9.12965V3.33151H7.12965ZM8.12965 8.21894H12.693V6.21894H8.12965V8.21894ZM11.693 7.21894V16.6616H13.693V7.21894H11.693ZM12.693 15.6616H1.60848V17.6616H12.693V15.6616ZM8.1334 4.48598L11.5829 7.4245L12.8798 5.90202L9.43035 2.96351L8.1334 4.48598ZM12.2314 5.66326H8.78187V7.66326H12.2314V5.66326ZM9.78187 6.66326V3.72474H7.78187V6.66326H9.78187ZM14.3453 13.886V6.82601H12.3453V13.886H14.3453ZM13.9937 6.06477L9.23937 2.01466L7.94242 3.53713L12.6968 7.58724L13.9937 6.06477ZM8.5909 1.77589H4.8707V3.77589H8.5909V1.77589ZM5.8707 2.77589V0.555891H3.8707V2.77589H5.8707ZM4.8707 1.55589H11.3919V-0.444109H4.8707V1.55589ZM10.3919 0.555891V4.44332H12.3919V0.555891H10.3919ZM11.3919 5.44332H15.9553V3.44332H11.3919V5.44332ZM14.9553 4.44332V13.8859H16.9553V4.44332H14.9553ZM15.9553 12.8859L13.3453 12.886L13.3453 14.886L15.9553 14.8859L15.9553 12.8859Z" fill="#1E1E1E" mask="url(#path-1-inside-1_3_2816)"/>
<mask id="path-3-inside-2_3_2816" fill="white">
<path d="M3.89222 8.05289H5.84969V6.9412H7.15073V5.27368H5.84573V4.16199H3.88825V5.27368H2.58325V6.9412H3.88825V8.05289H3.89222ZM3.2397 6.38874V5.83288H4.5447V4.72119H5.19721V5.83288H6.50221V6.38874H5.19721V7.50043H4.5447V6.38874H3.2397Z"/>
</mask>
<path d="M3.89222 8.05289H5.84969V6.9412H7.15073V5.27368H5.84573V4.16199H3.88825V5.27368H2.58325V6.9412H3.88825V8.05289H3.89222ZM3.2397 6.38874V5.83288H4.5447V4.72119H5.19721V5.83288H6.50221V6.38874H5.19721V7.50043H4.5447V6.38874H3.2397Z" fill="#1E1E1E"/>
<path d="M5.84969 8.05289V9.05289H6.84969V8.05289H5.84969ZM5.84969 6.9412V5.9412H4.84969V6.9412H5.84969ZM7.15073 6.9412V7.9412H8.15073V6.9412H7.15073ZM7.15073 5.27368H8.15073V4.27368H7.15073V5.27368ZM5.84573 5.27368H4.84573V6.27368H5.84573V5.27368ZM5.84573 4.16199H6.84573V3.16199H5.84573V4.16199ZM3.88825 4.16199V3.16199H2.88825V4.16199H3.88825ZM3.88825 5.27368V6.27368H4.88825V5.27368H3.88825ZM2.58325 5.27368V4.27368H1.58325V5.27368H2.58325ZM2.58325 6.9412H1.58325V7.9412H2.58325V6.9412ZM3.88825 6.9412H4.88825V5.9412H3.88825V6.9412ZM3.88825 8.05289H2.88825V9.05289H3.88825V8.05289ZM3.2397 6.38874H2.2397V7.38874H3.2397V6.38874ZM3.2397 5.83288V4.83288H2.2397V5.83288H3.2397ZM4.5447 5.83288V6.83288H5.5447V5.83288H4.5447ZM4.5447 4.72119V3.72119H3.5447V4.72119H4.5447ZM5.19721 4.72119H6.19721V3.72119H5.19721V4.72119ZM5.19721 5.83288H4.19721V6.83288H5.19721V5.83288ZM6.50221 5.83288H7.50221V4.83288H6.50221V5.83288ZM6.50221 6.38874V7.38874H7.50221V6.38874H6.50221ZM5.19721 6.38874V5.38874H4.19721V6.38874H5.19721ZM5.19721 7.50043V8.50043H6.19721V7.50043H5.19721ZM4.5447 7.50043H3.5447V8.50043H4.5447V7.50043ZM4.5447 6.38874H5.5447V5.38874H4.5447V6.38874ZM3.89222 9.05289H5.84969V7.05289H3.89222V9.05289ZM6.84969 8.05289V6.9412H4.84969V8.05289H6.84969ZM5.84969 7.9412H7.15073V5.9412H5.84969V7.9412ZM8.15073 6.9412V5.27368H6.15073V6.9412H8.15073ZM7.15073 4.27368H5.84573V6.27368H7.15073V4.27368ZM6.84573 5.27368V4.16199H4.84573V5.27368H6.84573ZM5.84573 3.16199H3.88825V5.16199H5.84573V3.16199ZM2.88825 4.16199V5.27368H4.88825V4.16199H2.88825ZM3.88825 4.27368H2.58325V6.27368H3.88825V4.27368ZM1.58325 5.27368V6.9412H3.58325V5.27368H1.58325ZM2.58325 7.9412H3.88825V5.9412H2.58325V7.9412ZM2.88825 6.9412V8.05289H4.88825V6.9412H2.88825ZM3.88825 9.05289H3.89222V7.05289H3.88825V9.05289ZM4.2397 6.38874V5.83288H2.2397V6.38874H4.2397ZM3.2397 6.83288H4.5447V4.83288H3.2397V6.83288ZM5.5447 5.83288V4.72119H3.5447V5.83288H5.5447ZM4.5447 5.72119H5.19721V3.72119H4.5447V5.72119ZM4.19721 4.72119V5.83288H6.19721V4.72119H4.19721ZM5.19721 6.83288H6.50221V4.83288H5.19721V6.83288ZM5.50221 5.83288V6.38874H7.50221V5.83288H5.50221ZM6.50221 5.38874H5.19721V7.38874H6.50221V5.38874ZM4.19721 6.38874V7.50043H6.19721V6.38874H4.19721ZM5.19721 6.50043H4.5447V8.50043H5.19721V6.50043ZM5.5447 7.50043V6.38874H3.5447V7.50043H5.5447ZM4.5447 5.38874H3.2397V7.38874H4.5447V5.38874Z" fill="#1E1E1E" mask="url(#path-3-inside-2_3_2816)"/>
<mask id="path-5-inside-3_3_2816" fill="white">
<path d="M2.58716 9.99817H11.7143V10.554H2.58716V9.99817Z"/>
</mask>
<path d="M2.58716 9.99817H11.7143V10.554H2.58716V9.99817Z" fill="#1E1E1E"/>
<path d="M2.58716 9.99817V8.99817H1.58716V9.99817H2.58716ZM11.7143 9.99817H12.7143V8.99817H11.7143V9.99817ZM11.7143 10.554V11.554H12.7143V10.554H11.7143ZM2.58716 10.554H1.58716V11.554H2.58716V10.554ZM2.58716 10.9982H11.7143V8.99817H2.58716V10.9982ZM10.7143 9.99817V10.554H12.7143V9.99817H10.7143ZM11.7143 9.55403H2.58716V11.554H11.7143V9.55403ZM3.58716 10.554V9.99817H1.58716V10.554H3.58716Z" fill="#1E1E1E" mask="url(#path-5-inside-3_3_2816)"/>
<mask id="path-7-inside-4_3_2816" fill="white">
<path d="M2.58716 12.2183H11.7143V12.7741H2.58716V12.2183Z"/>
</mask>
<path d="M2.58716 12.2183H11.7143V12.7741H2.58716V12.2183Z" fill="#1E1E1E"/>
<path d="M2.58716 12.2183V11.2183H1.58716V12.2183H2.58716ZM11.7143 12.2183H12.7143V11.2183H11.7143V12.2183ZM11.7143 12.7741V13.7741H12.7143V12.7741H11.7143ZM2.58716 12.7741H1.58716V13.7741H2.58716V12.7741ZM2.58716 13.2183H11.7143V11.2183H2.58716V13.2183ZM10.7143 12.2183V12.7741H12.7143V12.2183H10.7143ZM11.7143 11.7741H2.58716V13.7741H11.7143V11.7741ZM3.58716 12.7741V12.2183H1.58716V12.7741H3.58716Z" fill="#1E1E1E" mask="url(#path-7-inside-4_3_2816)"/>
<mask id="path-9-inside-5_3_2816" fill="white">
<path d="M11.0657 14.7195H11.7182V15.2753H11.0657V14.7195Z"/>
</mask>
<path d="M11.0657 14.7195H11.7182V15.2753H11.0657V14.7195Z" fill="#1E1E1E"/>
<path d="M11.0657 14.7195V13.7195H10.0657V14.7195H11.0657ZM11.7182 14.7195H12.7182V13.7195H11.7182V14.7195ZM11.7182 15.2753V16.2753H12.7182V15.2753H11.7182ZM11.0657 15.2753H10.0657V16.2753H11.0657V15.2753ZM11.0657 15.7195H11.7182V13.7195H11.0657V15.7195ZM10.7182 14.7195V15.2753H12.7182V14.7195H10.7182ZM11.7182 14.2753H11.0657V16.2753H11.7182V14.2753ZM12.0657 15.2753V14.7195H10.0657V15.2753H12.0657Z" fill="#1E1E1E" mask="url(#path-9-inside-5_3_2816)"/>
<mask id="path-11-inside-6_3_2816" fill="white">
<path d="M9.76074 14.7195H10.4133V15.2753H9.76074V14.7195Z"/>
</mask>
<path d="M9.76074 14.7195H10.4133V15.2753H9.76074V14.7195Z" fill="#1E1E1E"/>
<path d="M9.76074 14.7195V13.7195H8.76074V14.7195H9.76074ZM10.4133 14.7195H11.4133V13.7195H10.4133V14.7195ZM10.4133 15.2753V16.2753H11.4133V15.2753H10.4133ZM9.76074 15.2753H8.76074V16.2753H9.76074V15.2753ZM9.76074 15.7195H10.4133V13.7195H9.76074V15.7195ZM9.41326 14.7195V15.2753H11.4133V14.7195H9.41326ZM10.4133 14.2753H9.76074V16.2753H10.4133V14.2753ZM10.7607 15.2753V14.7195H8.76074V15.2753H10.7607Z" fill="#1E1E1E" mask="url(#path-11-inside-6_3_2816)"/>
<mask id="path-13-inside-7_3_2816" fill="white">
<path d="M8.45557 14.7195H9.10808V15.2753H8.45557V14.7195Z"/>
</mask>
<path d="M8.45557 14.7195H9.10808V15.2753H8.45557V14.7195Z" fill="#1E1E1E"/>
<path d="M8.45557 14.7195V13.7195H7.45557V14.7195H8.45557ZM9.10808 14.7195H10.1081V13.7195H9.10808V14.7195ZM9.10808 15.2753V16.2753H10.1081V15.2753H9.10808ZM8.45557 15.2753H7.45557V16.2753H8.45557V15.2753ZM8.45557 15.7195H9.10808V13.7195H8.45557V15.7195ZM8.10808 14.7195V15.2753H10.1081V14.7195H8.10808ZM9.10808 14.2753H8.45557V16.2753H9.10808V14.2753ZM9.45557 15.2753V14.7195H7.45557V15.2753H9.45557Z" fill="#1E1E1E" mask="url(#path-13-inside-7_3_2816)"/>
</svg>
